<?xml version="1.0" encoding="UTF-8" standalone="no"?>
<svg
   viewBox="0 0 888.35 608.79"
   version="1.1"
   id="svg35"
   sodipodi:docname="R&amp;M Systems.svg"
   inkscape:version="1.1.1 (3bf5ae0d25, 2021-09-20)"
   xmlns:inkscape="http://www.inkscape.org/namespaces/inkscape"
   xmlns:sodipodi="http://sodipodi.sourceforge.net/DTD/sodipodi-0.dtd"
   xmlns="http://www.w3.org/2000/svg"
   xmlns:svg="http://www.w3.org/2000/svg">
  <sodipodi:namedview
     id="namedview37"
     pagecolor="#ffffff"
     bordercolor="#666666"
     borderopacity="1.0"
     inkscape:pageshadow="2"
     inkscape:pageopacity="0.0"
     inkscape:pagecheckerboard="0"
     showgrid="false"
     inkscape:zoom="1.1909721"
     inkscape:cx="443.75516"
     inkscape:cy="304.37322"
     inkscape:window-width="1920"
     inkscape:window-height="1017"
     inkscape:window-x="1912"
     inkscape:window-y="-8"
     inkscape:window-maximized="1"
     inkscape:current-layer="svg35" />
  <defs
     id="defs4">
    <style
       id="style2">.d,.e{fill:#060709;}.e{fill-rule:evenodd;}</style>
  </defs>
  <g
     id="a" />
  <g
     id="b"
     style="fill:#999999">
    <g
       id="c"
       style="fill:#999999">
      <path
         class="e"
         d="M417.84,431.43h392.49V43.42L839.03,.06h1.2V461.33H438.03l-20.2-29.9ZM0,.06l714.23-.06-19.78,29.9-664.55,.06V431.43h248.56l19.99,29.9H0V.06Z"
         id="path7"
         style="fill:#999999" />
      <polygon
         class="d"
         points="683.03 244.13 683.03 369.13 743.14 369.13 743.14 154.51 688.88 236.52 683.03 244.13"
         id="polygon9"
         style="fill:#999999" />
      <path
         class="d"
         d="M744.44,.06l-125.24,185.97,.39,.26-14.88,23.05-72.77-117.07h-65.66V369.13h60.12V189.55l77.12,117.07h1.58l77.75-117.88L811.6,.06c-22.02,.36-45.14-.24-67.16,0Z"
         id="path11"
         style="fill:#999999" />
      <path
         class="d"
         d="M317.55,239.19c10.94-14.11,16.42-32.37,16.42-54.78v-.79c0-28.75-9.16-51.15-27.5-67.24-18.32-16.09-43.96-24.13-76.93-24.13H102.98V369.13h60.91v-88.6h47.86l120.83,180.8h71.2l-129.13-191.08c17.66-6.6,31.96-16.95,42.91-31.05Zm-45.28-51.61c0,11.86-4.03,21.35-12.07,28.47-8.04,7.13-19.57,10.68-34.61,10.68h-61.7v-79.5h60.52c15.02,0,26.76,3.3,35.2,9.88,8.43,6.59,12.66,16.48,12.66,29.67v.79Z"
         id="path13"
         style="fill:#999999" />
      <g
         id="g29"
         style="fill:#999999">
        <path
           d="M24.87,554.96c1.82,8.03,7.59,11.55,16.84,11.55s13.18-3.65,13.18-9.5c0-6.51-3.86-9.33-17.53-12.52-21.76-5.11-27.14-13.03-27.14-23.82,0-13.94,10.43-23.4,29.36-23.4,21.23,0,29.69,11.41,30.84,23.11h-17.42c-.83-4.92-3.56-10.27-13.87-10.27-7.02,0-11.25,2.9-11.25,8.58s3.4,7.82,16.32,10.81c23.26,5.48,28.36,14.13,28.36,25.41,0,14.6-11.05,24.62-32.19,24.62s-30.99-9.99-32.91-24.57H24.87Z"
           id="path15"
           style="fill:#999999" />
        <path
           d="M153.22,578.4v-28.26c0-.9-.13-1.71-.67-2.57l-27.57-49.14h19.56c6.18,12.07,14.2,28.11,18.19,36.8,3.48-8.38,12.23-25.22,18.28-36.8h18.09l-27.93,48.89c-.33,.57-.65,.93-.65,2.56v28.53h-17.31Z"
           id="path17"
           style="fill:#999999" />
        <path
           d="M268.58,554.96c1.82,8.03,7.59,11.55,16.84,11.55s13.18-3.65,13.18-9.5c0-6.51-3.86-9.33-17.53-12.52-21.76-5.11-27.14-13.03-27.14-23.82,0-13.94,10.43-23.4,29.36-23.4,21.23,0,29.69,11.41,30.84,23.11h-17.42c-.83-4.92-3.56-10.27-13.87-10.27-7.02,0-11.25,2.9-11.25,8.58s3.4,7.82,16.32,10.81c23.26,5.48,28.36,14.13,28.36,25.41,0,14.6-11.05,24.62-32.19,24.62s-30.99-9.99-32.91-24.57h17.42Z"
           id="path19"
           style="fill:#999999" />
        <path
           d="M396.38,512.6h-24.3v-14.17h65.81v14.17h-24.21v65.8h-17.31v-65.8Z"
           id="path21"
           style="fill:#999999" />
        <path
           d="M554.22,543.91h-38.25v20.32h42.19l-2.05,14.17h-56.92v-79.97h56.71v14.17h-39.92v17.14h38.25v14.17Z"
           id="path23"
           style="fill:#999999" />
        <path
           d="M688.48,548.4c0-13.64,.22-28.94,.57-37.98h-.55c-3.76,16.32-11.75,42.96-19.42,67.98h-14.73c-5.83-21.88-14.1-52.23-17.61-68.2h-.54c.68,9.38,1.02,25.84,1.02,39.55v28.64h-15.76v-79.97h25.73c6.23,20.9,13.22,47.11,15.63,59.03h.13c1.96-10.51,10.74-38.54,17.41-59.03h24.8v79.97h-16.68v-30Z"
           id="path25"
           style="fill:#999999" />
        <path
           d="M785.36,554.96c1.82,8.03,7.59,11.55,16.84,11.55s13.18-3.65,13.18-9.5c0-6.51-3.86-9.33-17.53-12.52-21.76-5.11-27.14-13.03-27.14-23.82,0-13.94,10.43-23.4,29.36-23.4,21.23,0,29.69,11.41,30.84,23.11h-17.42c-.83-4.92-3.56-10.27-13.87-10.27-7.02,0-11.25,2.9-11.25,8.58s3.4,7.82,16.32,10.81c23.26,5.48,28.36,14.13,28.36,25.41,0,14.6-11.05,24.62-32.19,24.62s-30.99-9.99-32.91-24.57h17.42Z"
           id="path27"
           style="fill:#999999" />
      </g>
      <path
         d="M438.2,228.1v20.46h-68.64v-20.46h68.64Zm-23.69,42.94h-21.27v-65.42h21.27v65.42Z"
         id="path31"
         style="fill:#999999" />
    </g>
  </g>
</svg>
